<svg width="39" height="30" viewBox="0 0 39 30" fill="none" xmlns="http://www.w3.org/2000/svg">
<path d="M0.6 14.6806C0.6 12.4406 0.773333 10.5339 1.12 8.96058C1.49333 7.36057 1.97333 6.02724 2.56 4.96058C3.14667 3.86724 3.8 3.00058 4.52 2.36057C5.26667 1.69391 6.01333 1.20057 6.76 0.880574C7.53333 0.533908 8.26667 0.307242 8.96 0.200575C9.68 0.0939085 10.3067 0.040575 10.84 0.040575C11.3733 0.040575 11.9867 0.0939085 12.68 0.200575C13.4 0.307242 14.1333 0.533908 14.88 0.880574C15.6533 1.20057 16.4 1.69391 17.12 2.36057C17.8667 3.00058 18.5333 3.86724 19.12 4.96058C19.7067 6.02724 20.1733 7.36057 20.52 8.96058C20.8933 10.5339 21.08 12.4406 21.08 14.6806C21.08 16.9206 20.8933 18.8406 20.52 20.4406C20.1733 22.0139 19.7067 23.3472 19.12 24.4406C18.5333 25.5072 17.8667 26.3739 17.12 27.0406C16.4 27.6806 15.6533 28.1739 14.88 28.5206C14.1333 28.8406 13.4 29.0539 12.68 29.1606C11.9867 29.2672 11.3733 29.3206 10.84 29.3206C10.3067 29.3206 9.68 29.2672 8.96 29.1606C8.26667 29.0539 7.53333 28.8406 6.76 28.5206C6.01333 28.1739 5.26667 27.6806 4.52 27.0406C3.8 26.3739 3.14667 25.5072 2.56 24.4406C1.97333 23.3472 1.49333 22.0139 1.12 20.4406C0.773333 18.8406 0.6 16.9206 0.6 14.6806ZM5.4 14.6806C5.4 15.5606 5.45333 16.5872 5.56 17.7606C5.69333 18.9072 5.94667 20.0006 6.32 21.0406C6.69333 22.0806 7.24 22.9606 7.96 23.6806C8.68 24.4006 9.64 24.7606 10.84 24.7606C12.04 24.7606 13 24.4006 13.72 23.6806C14.44 22.9606 14.9867 22.0806 15.36 21.0406C15.7333 20.0006 15.9733 18.9072 16.08 17.7606C16.2133 16.5872 16.28 15.5606 16.28 14.6806C16.28 13.8006 16.2133 12.7872 16.08 11.6406C15.9733 10.4672 15.7333 9.36058 15.36 8.32058C14.9867 7.28057 14.44 6.40057 13.72 5.68057C13 4.96058 12.04 4.60058 10.84 4.60058C9.64 4.60058 8.68 4.96058 7.96 5.68057C7.24 6.40057 6.69333 7.28057 6.32 8.32058C5.94667 9.36058 5.69333 10.4672 5.56 11.6406C5.45333 12.7872 5.4 13.8006 5.4 14.6806ZM33.3919 6.04057L28.0719 10.9606L25.2719 7.64057L33.8319 0.520576H38.1919V28.8406H33.3919V6.04057Z" fill="#252525" fill-opacity="0.25"/>
</svg>
