<svg width="44" height="30" viewBox="0 0 44 30" fill="none" xmlns="http://www.w3.org/2000/svg">
<path d="M0.6 14.84C0.6 12.6 0.773333 10.6933 1.12 9.12C1.49333 7.52 1.97333 6.18667 2.56 5.12C3.14667 4.02667 3.8 3.16 4.52 2.52C5.26667 1.85333 6.01333 1.36 6.76 1.04C7.53333 0.693332 8.26667 0.466666 8.96 0.359999C9.68 0.253332 10.3067 0.199999 10.84 0.199999C11.3733 0.199999 11.9867 0.253332 12.68 0.359999C13.4 0.466666 14.1333 0.693332 14.88 1.04C15.6533 1.36 16.4 1.85333 17.12 2.52C17.8667 3.16 18.5333 4.02667 19.12 5.12C19.7067 6.18667 20.1733 7.52 20.52 9.12C20.8933 10.6933 21.08 12.6 21.08 14.84C21.08 17.08 20.8933 19 20.52 20.6C20.1733 22.1733 19.7067 23.5067 19.12 24.6C18.5333 25.6667 17.8667 26.5333 17.12 27.2C16.4 27.84 15.6533 28.3333 14.88 28.68C14.1333 29 13.4 29.2133 12.68 29.32C11.9867 29.4267 11.3733 29.48 10.84 29.48C10.3067 29.48 9.68 29.4267 8.96 29.32C8.26667 29.2133 7.53333 29 6.76 28.68C6.01333 28.3333 5.26667 27.84 4.52 27.2C3.8 26.5333 3.14667 25.6667 2.56 24.6C1.97333 23.5067 1.49333 22.1733 1.12 20.6C0.773333 19 0.6 17.08 0.6 14.84ZM5.4 14.84C5.4 15.72 5.45333 16.7467 5.56 17.92C5.69333 19.0667 5.94667 20.16 6.32 21.2C6.69333 22.24 7.24 23.12 7.96 23.84C8.68 24.56 9.64 24.92 10.84 24.92C12.04 24.92 13 24.56 13.72 23.84C14.44 23.12 14.9867 22.24 15.36 21.2C15.7333 20.16 15.9733 19.0667 16.08 17.92C16.2133 16.7467 16.28 15.72 16.28 14.84C16.28 13.96 16.2133 12.9467 16.08 11.8C15.9733 10.6267 15.7333 9.52 15.36 8.48C14.9867 7.44 14.44 6.56 13.72 5.84C13 5.12 12.04 4.76 10.84 4.76C9.64 4.76 8.68 5.12 7.96 5.84C7.24 6.56 6.69333 7.44 6.32 8.48C5.94667 9.52 5.69333 10.6267 5.56 11.8C5.45333 12.9467 5.4 13.96 5.4 14.84ZM25.0319 23.92L36.0319 13.28C36.3519 12.96 36.6852 12.6267 37.0319 12.28C37.3785 11.9067 37.6852 11.52 37.9519 11.12C38.2452 10.72 38.4852 10.3067 38.6719 9.88C38.8585 9.42667 38.9519 8.96 38.9519 8.48C38.9519 7.89333 38.8319 7.37333 38.5919 6.92C38.3785 6.46667 38.0852 6.08 37.7119 5.76C37.3385 5.44 36.8985 5.2 36.3919 5.04C35.9119 4.85333 35.3919 4.76 34.8319 4.76C33.6319 4.76 32.6452 5.10667 31.8719 5.8C31.0985 6.49333 30.6319 7.42667 30.4719 8.6L25.4319 8.2C25.5385 6.89333 25.8452 5.74667 26.3519 4.76C26.8852 3.74667 27.5652 2.90666 28.3919 2.24C29.2185 1.57333 30.1785 1.06667 31.2719 0.719999C32.3652 0.373332 33.5519 0.199999 34.8319 0.199999C36.1119 0.199999 37.2985 0.373332 38.3919 0.719999C39.5119 1.04 40.4852 1.53333 41.3119 2.2C42.1385 2.84 42.7919 3.66667 43.2719 4.68C43.7519 5.69333 43.9919 6.88 43.9919 8.24C43.9919 10.0267 43.5785 11.5733 42.7519 12.88C41.9519 14.16 40.9119 15.3867 39.6319 16.56L30.8719 24.68H43.9919V29H25.0319V23.92Z" fill="#252525" fill-opacity="0.25"/>
</svg>
