<svg width="44" height="30" viewBox="0 0 44 30" fill="none" xmlns="http://www.w3.org/2000/svg">
<path d="M0.6 14.84C0.6 12.6 0.773333 10.6933 1.12 9.12C1.49333 7.52 1.97333 6.18667 2.56 5.12C3.14667 4.02667 3.8 3.16 4.52 2.52C5.26667 1.85333 6.01333 1.36 6.76 1.04C7.53333 0.693332 8.26667 0.466666 8.96 0.359999C9.68 0.253332 10.3067 0.199999 10.84 0.199999C11.3733 0.199999 11.9867 0.253332 12.68 0.359999C13.4 0.466666 14.1333 0.693332 14.88 1.04C15.6533 1.36 16.4 1.85333 17.12 2.52C17.8667 3.16 18.5333 4.02667 19.12 5.12C19.7067 6.18667 20.1733 7.52 20.52 9.12C20.8933 10.6933 21.08 12.6 21.08 14.84C21.08 17.08 20.8933 19 20.52 20.6C20.1733 22.1733 19.7067 23.5067 19.12 24.6C18.5333 25.6667 17.8667 26.5333 17.12 27.2C16.4 27.84 15.6533 28.3333 14.88 28.68C14.1333 29 13.4 29.2133 12.68 29.32C11.9867 29.4267 11.3733 29.48 10.84 29.48C10.3067 29.48 9.68 29.4267 8.96 29.32C8.26667 29.2133 7.53333 29 6.76 28.68C6.01333 28.3333 5.26667 27.84 4.52 27.2C3.8 26.5333 3.14667 25.6667 2.56 24.6C1.97333 23.5067 1.49333 22.1733 1.12 20.6C0.773333 19 0.6 17.08 0.6 14.84ZM5.4 14.84C5.4 15.72 5.45333 16.7467 5.56 17.92C5.69333 19.0667 5.94667 20.16 6.32 21.2C6.69333 22.24 7.24 23.12 7.96 23.84C8.68 24.56 9.64 24.92 10.84 24.92C12.04 24.92 13 24.56 13.72 23.84C14.44 23.12 14.9867 22.24 15.36 21.2C15.7333 20.16 15.9733 19.0667 16.08 17.92C16.2133 16.7467 16.28 15.72 16.28 14.84C16.28 13.96 16.2133 12.9467 16.08 11.8C15.9733 10.6267 15.7333 9.52 15.36 8.48C14.9867 7.44 14.44 6.56 13.72 5.84C13 5.12 12.04 4.76 10.84 4.76C9.64 4.76 8.68 5.12 7.96 5.84C7.24 6.56 6.69333 7.44 6.32 8.48C5.94667 9.52 5.69333 10.6267 5.56 11.8C5.45333 12.9467 5.4 13.96 5.4 14.84ZM31.5519 12.08H32.7919C33.4852 12.08 34.1519 12.04 34.7919 11.96C35.4585 11.88 36.0452 11.7067 36.5519 11.44C37.0852 11.1733 37.5119 10.7867 37.8319 10.28C38.1519 9.77333 38.3119 9.09333 38.3119 8.24C38.3119 7.14667 37.9385 6.25333 37.1919 5.56C36.4452 4.86667 35.4719 4.52 34.2719 4.52C33.3119 4.52 32.4452 4.8 31.6719 5.36C30.9252 5.89333 30.3785 6.65333 30.0319 7.64L24.9519 6.28C25.2719 5.24 25.7252 4.33333 26.3119 3.56C26.8985 2.78667 27.5919 2.16 28.3919 1.68C29.1919 1.17333 30.0719 0.799999 31.0319 0.559999C31.9919 0.319999 32.9919 0.199999 34.0319 0.199999C35.2585 0.199999 36.4185 0.359999 37.5119 0.68C38.6052 0.999999 39.5652 1.48 40.3919 2.12C41.2185 2.73333 41.8719 3.52 42.3519 4.48C42.8585 5.41333 43.1119 6.50667 43.1119 7.76C43.1119 9.28 42.6852 10.64 41.8319 11.84C40.9785 13.0133 39.7919 13.7867 38.2719 14.16V14.24C40.0852 14.5067 41.4585 15.28 42.3919 16.56C43.3252 17.84 43.7919 19.36 43.7919 21.12C43.7919 22.48 43.5252 23.68 42.9919 24.72C42.4852 25.76 41.7919 26.64 40.9119 27.36C40.0319 28.0533 39.0052 28.5867 37.8319 28.96C36.6852 29.3067 35.4852 29.48 34.2319 29.48C33.0585 29.48 31.9519 29.3467 30.9119 29.08C29.8719 28.84 28.9252 28.4533 28.0719 27.92C27.2452 27.3867 26.5252 26.7067 25.9119 25.88C25.2985 25.0267 24.8319 24.0133 24.5119 22.84L29.6319 21.48C29.9252 22.6533 30.4452 23.56 31.1919 24.2C31.9385 24.84 32.9519 25.16 34.2319 25.16C34.8719 25.16 35.4719 25.0533 36.0319 24.84C36.6185 24.6267 37.1252 24.3333 37.5519 23.96C38.0052 23.56 38.3519 23.0933 38.5919 22.56C38.8585 22 38.9919 21.3867 38.9919 20.72C38.9919 19.8133 38.7919 19.08 38.3919 18.52C38.0185 17.9333 37.5252 17.4933 36.9119 17.2C36.3252 16.88 35.6585 16.6667 34.9119 16.56C34.1652 16.4533 33.4319 16.4 32.7119 16.4H31.5519V12.08Z" fill="#252525" fill-opacity="0.25"/>
</svg>
